<?xml version="1.0" encoding="UTF-8"?>
<svg id="Layer_2" data-name="Layer 2" xmlns="http://www.w3.org/2000/svg" viewBox="0 0 302.19 299.83">
  <g id="Layer_2-2" data-name="Layer 2">
    <g>
      <g>
        <path d="M151.1,0C67.65,0,0,67.55,0,150.88c0,28.02,7.65,54.26,20.98,76.75h.01C0,250.6,5.85,270.4,5.85,283.76c0,0,0,.01.01.01,30.48-7.14,44.61-9.53,52.41-14.29,0,0,2.89.23,2.89.23.54.04.85.16,1.1.36,25.55,19.86,53.93,28.55,88.83,29.68,85.17,2.76,151.1-65.55,151.1-148.88S234.54,0,151.1,0ZM38.23,213.35c13.62-22.88,36.69-40.18,52.86-46.02,9.56,1.85,24.23,8.01,39.16-2.31l16.29,16.98,14.55-16.98c7.16,4.08,16.89,6.93,27.03,3.54,0,58.71-67.22,82.05-90.79,82.05,20.1-15.56,31.88-26.54,40.2-53.08-60.99,38.93-99.29,14.51-99.29,15.82ZM151.59,283.78c-19.98,0-32.52-1.61-48.37-8.04l-15.79-8.89c49.9,0,113.95-30.81,116.84-94.89v-5.59c0-.45.36-.78.8-.81,7.76-.61,67.4-49.22-11.89-104.5l-22.18,25.46.25,1.01c2.58-.66,5.29-1.01,8.07-1.01,18.37,0,33.27,15.2,33.27,33.95s-14.89,33.95-33.27,33.95c-15.85,0-29.1-11.31-32.45-26.45-.09-.39-.42-.66-.82-.66h0c-.39,0-.73.28-.82.66-3.35,15.14-16.6,26.45-32.45,26.45-18.37,0-33.27-15.2-33.27-33.95s14.89-33.95,33.27-33.95c2.18,0,4.3.21,6.36.62.23.04.46.04.68,0l2.66-.61-21.48-25.46c-75.76,47.94-26.49,96.31-26.49,96.31-17.99,9.42-30.25,19.79-47.58,40.17h-.01c-5.45-14.51-8.43-30.23-8.43-46.65,0-73.4,59.59-132.9,133.09-132.9s133.09,59.5,133.09,132.9-53.33,132.94-133.09,132.9Z" style="fill: #04723e; stroke-width: 0px;"/>
        <path d="M171.28,57.41h-47.16c-.77,0-1.14.95-.57,1.46,11.38,10.3,17.26,22.59,23.3,44.54h-.35c6.32-23,12.48-35.38,24.96-46" style="fill: #fba919; stroke-width: 0px;"/>
      </g>
      <ellipse cx="177.78" cy="120.41" rx="12.5" ry="13" style="fill: #fba919; stroke-width: 0px;"/>
      <ellipse cx="110.78" cy="122.41" rx="12.5" ry="13" style="fill: #fba919; stroke-width: 0px;"/>
    </g>
  </g>
</svg>